<svg width="305" height="840" viewBox="0 0 305 840" fill="none" xmlns="http://www.w3.org/2000/svg">
<path d="M7.12615 1.71079C7.58222 1.71079 8.09531 1.31161 8.26634 0.855397C8.43736 0.171079 9.57755 0 13.3972 0C17.3308 0 18.243 0.171079 18.243 0.855397C18.243 1.31161 18.642 1.71079 19.0981 1.71079C19.5542 1.71079 19.9533 2.10998 19.9533 2.56619C19.9533 3.0224 20.3523 3.42159 20.8084 3.42159C21.2645 3.42159 21.6635 3.82077 21.6635 4.27699C21.6635 4.7332 22.0626 5.13238 22.5187 5.13238C23.0888 5.13238 23.3738 5.70265 23.3738 6.84318C23.3738 7.98371 23.6589 8.55397 24.229 8.55397C24.799 8.55397 25.0841 9.12424 25.0841 10.2648C25.0841 11.4053 25.3691 11.9756 25.9392 11.9756C26.3953 11.9756 26.7944 12.3747 26.7944 12.831C26.7944 13.2872 27.1934 13.6864 27.6495 13.6864C28.1056 13.6864 28.5047 14.0855 28.5047 14.5418C28.5047 14.998 28.9037 15.3971 29.3598 15.3971C29.8159 15.3971 30.2149 15.7963 30.2149 16.2525C30.2149 16.8798 30.8991 17.1079 32.7804 17.1079C34.6617 17.1079 35.3458 17.336 35.3458 17.9633C35.3458 18.5336 35.9159 18.8187 37.0561 18.8187C38.1962 18.8187 38.7663 19.1039 38.7663 19.6741C38.7663 20.1303 39.1654 20.5295 39.6215 20.5295C40.0776 20.5295 40.4766 20.9287 40.4766 21.3849C40.4766 21.8411 40.8187 22.3544 41.2177 22.4684C41.6738 22.6205 41.7118 22.8676 41.3318 23.2098C40.9897 23.4949 38.4243 24.8635 30.2719 28.7984L28.9607 27.4868C28.2196 26.8024 27.4215 26.4033 27.1934 26.6314C26.9084 26.9165 26.5093 27.0876 26.3383 27.1446C26.1103 27.1446 25.5402 27.3157 25.0841 27.5438C24.628 27.7149 23.6019 27.943 22.8607 28.057C21.8346 28.1711 21.0364 29.0835 19.7252 31.4786C18.0719 34.444 17.9009 34.6151 16.8177 33.8737C15.9626 33.3035 14.8224 33.1894 9.17849 33.9308L9.8626 16.2525L5.98596 14.4277L6.09998 8.04073C6.27101 2.85132 6.44204 1.71079 7.12615 1.71079Z" fill="white"/>
<path d="M270.395 701.711C270.224 699.43 270.395 699.145 271.536 698.916C272.22 698.802 273.246 698.688 273.816 698.631C274.329 698.631 276.153 699.259 277.807 700.057C280.087 701.198 281.284 701.483 285.047 700.855V709.409H282.481C280.6 709.409 279.916 709.181 279.916 708.554C279.916 708.098 279.517 707.699 279.061 707.699C278.605 707.699 278.206 707.299 278.206 706.843C278.206 706.216 277.522 705.988 275.64 705.988C273.759 705.988 273.075 705.76 273.075 705.132C273.075 704.619 272.562 704.277 271.821 704.277C270.68 704.277 270.509 703.935 270.395 701.711Z" fill="white"/>
<path d="M269.369 699.088C269.711 698.86 270.452 698.575 271.08 698.403C271.707 698.232 272.619 698.118 273.075 698.061C273.816 698.004 273.816 698.061 273.075 698.575C272.619 698.86 271.764 699.145 271.194 699.145C270.395 699.145 270.224 699.601 270.338 701.54C270.452 703.023 270.224 703.935 269.825 704.106C269.426 704.163 269.084 703.992 269.084 703.707C269.084 703.365 269.369 703.137 269.654 703.137C269.996 703.137 269.939 702.452 269.54 701.312C269.084 700.114 269.027 699.316 269.369 699.088Z" fill="#F5F8F6"/>
<path d="M253.92 701.882C254.034 701.483 254.319 700.171 254.547 699.031C254.775 697.833 255.174 696.864 255.459 696.864C255.744 696.864 255.972 697.206 255.972 697.605C255.972 697.947 255.687 699.259 255.402 700.456C255.06 701.597 254.547 702.566 254.262 702.566C253.977 702.566 253.806 702.224 253.92 701.882Z" fill="#EFEFEF"/>
<path d="M275.469 697.034C276.552 696.122 277.066 695.153 277.123 693.898L277.237 692.016L277.465 693.727C277.579 694.753 277.351 695.78 276.837 696.293C276.324 696.749 275.925 697.32 275.925 697.605C275.925 697.833 277.008 698.517 278.32 699.087C280.087 699.886 281.398 700.057 282.937 699.829C284.477 699.544 285.047 699.658 285.047 700.171C285.047 700.57 284.135 700.969 282.88 701.083C281.398 701.197 279.859 700.798 277.636 699.658C275.925 698.745 274.386 698.118 274.215 698.175C274.044 698.232 274.614 697.719 275.469 697.034Z" fill="#EFEFEF"/>
<path d="M260.476 680.725C260.647 680.497 263.782 679.584 267.374 678.729C270.966 677.817 274.215 677.132 274.557 677.132C274.899 677.075 275.184 677.303 275.241 677.589C275.298 677.817 274.785 678.159 274.044 678.33C273.36 678.501 270.281 679.242 261.559 681.181L259.849 686.028C258.937 688.709 257.967 691.104 257.796 691.332C257.568 691.56 256.428 691.617 255.231 691.446C254.091 691.275 253.122 690.876 253.122 690.591C253.122 690.248 253.92 690.134 256.827 690.591L258.48 685.914C259.393 683.291 260.305 680.953 260.476 680.725Z" fill="#EFEFEF"/>
<path d="M197.138 664.643C196.91 664.358 196.739 663.503 196.739 662.762C196.796 662.02 197.024 661.564 197.309 661.735C197.595 661.906 198.336 662.819 200.103 665.499L198.792 665.328C198.108 665.271 197.366 664.929 197.138 664.643Z" fill="white"/>
<path d="M196.112 660.652C195.371 660.481 194.972 659.911 194.972 659.112C194.972 657.915 195.086 657.915 197.024 659.796C198.165 660.88 201.414 664.986 204.265 668.864C209.224 675.536 209.851 676.163 215.78 680.098C220.968 683.577 222.451 684.318 224.332 684.318C226.156 684.375 226.783 684.09 227.467 682.892C227.923 682.094 228.665 681.467 229.007 681.467C229.406 681.467 229.748 681.581 229.748 681.752C229.748 681.923 229.178 682.835 228.437 683.748C227.638 684.888 226.669 685.458 225.757 685.458C224.617 685.458 224.503 685.572 225.187 686.086C225.871 686.542 225.814 686.599 224.902 686.371L224.902 686.371C224.275 686.2 223.021 685.858 222.108 685.629C221.196 685.401 220.341 684.888 220.113 684.546C219.942 684.204 218.574 683.12 217.035 682.151C215.552 681.124 214.184 680.326 213.899 680.326C213.671 680.269 213.899 680.725 214.355 681.295C215.039 682.208 215.039 682.208 214.355 681.581C213.899 681.181 213.5 680.554 213.5 680.212C213.5 679.87 213.101 679.414 212.645 679.243C212.018 679.014 211.904 679.185 212.303 679.756C212.645 680.212 211.961 679.87 210.878 678.9C209.794 677.931 207.229 674.908 205.234 672.114C203.181 669.32 201.186 666.925 200.844 666.811C200.445 666.754 200.16 666.24 200.16 665.67C200.217 665.157 199.59 663.902 198.735 662.819C197.937 661.792 196.739 660.823 196.112 660.652Z" fill="#EFEFEF"/>
<path d="M213.956 680.611C213.386 680.497 212.417 679.812 211.79 679.128C210.821 678.102 211.049 678.159 213.101 679.47C214.412 680.326 215.495 681.295 215.495 681.523C215.495 681.808 215.78 681.922 216.065 681.751C216.35 681.58 216.75 681.637 216.864 681.865C216.978 682.151 216.636 682.379 216.008 682.436C215.381 682.55 214.925 682.265 214.925 681.751C214.925 681.295 214.469 680.782 213.956 680.611Z" fill="#F5F8F6"/>
<path d="M190.126 639.267C190.24 638.469 190.468 636.302 190.525 634.42L190.639 630.998L190.81 634.42C190.924 636.302 190.753 638.469 189.784 640.693L190.126 639.267Z" fill="#EFEFEF"/>
<path d="M205.804 623.299C205.804 623.014 206.203 621.817 206.716 620.733C207.286 619.65 208.027 618.737 208.426 618.737C209.053 618.737 208.882 619.422 207.913 621.303C207.229 622.729 206.488 623.87 206.203 623.87C205.975 623.87 205.804 623.585 205.804 623.299Z" fill="#EFEFEF"/>
<path d="M198.108 617.026C198.564 617.026 198.963 616.627 198.963 616.171C198.963 615.487 199.704 615.315 202.098 615.315C204.379 615.315 205.291 615.544 205.519 616.171C205.69 616.627 206.203 617.026 206.659 617.026C207.172 617.026 207.514 617.539 207.514 618.338C207.457 619.022 207.115 620.22 206.659 621.018C206.203 621.816 205.861 622.786 205.804 623.185C205.804 623.527 206.089 623.869 206.374 623.869C206.659 623.869 207.4 623.014 207.97 621.931C208.597 620.619 209.281 620.049 209.965 620.22C210.479 620.334 210.935 620.847 210.935 621.303C210.935 621.759 211.334 622.159 211.79 622.159C212.246 622.159 212.645 622.558 212.645 623.014C212.645 623.47 213.044 623.869 213.5 623.869C213.956 623.869 214.355 624.269 214.355 624.725C214.355 625.181 214.754 625.58 215.21 625.58C215.723 625.58 215.951 625.922 215.78 626.436C215.609 626.949 215.837 627.291 216.351 627.291C216.807 627.291 217.206 627.69 217.206 628.146C217.206 628.603 217.605 629.002 218.061 629.002C218.631 629.002 218.916 629.572 218.916 630.713C218.916 631.853 219.201 632.423 219.771 632.423C220.341 632.423 220.626 632.994 220.626 634.134C220.626 635.275 220.911 635.845 221.481 635.845C222.165 635.845 222.337 636.586 222.337 639.267C222.337 641.947 222.508 642.688 223.192 642.688C223.762 642.688 224.047 643.258 224.047 644.399C224.047 645.539 224.332 646.11 224.902 646.11C225.358 646.11 225.757 646.509 225.757 646.965C225.757 647.592 226.441 647.821 228.323 647.821C230.204 647.821 230.888 648.049 230.888 648.676C230.888 649.246 231.458 649.531 232.598 649.531C233.738 649.531 234.308 649.816 234.308 650.387C234.308 650.957 234.879 651.242 236.019 651.242C237.159 651.242 237.729 651.527 237.729 652.098C237.729 652.554 238.128 652.953 238.584 652.953C239.04 652.953 239.439 653.352 239.439 653.808C239.439 654.379 240.009 654.664 241.15 654.664C242.29 654.664 242.86 654.949 242.86 655.519C242.86 655.975 243.259 656.374 243.715 656.374C244.171 656.374 244.57 656.774 244.57 657.23C244.57 657.686 244.969 658.085 245.425 658.085C245.881 658.085 246.28 658.484 246.28 658.941C246.28 659.397 246.68 659.796 247.136 659.796C247.592 659.796 247.991 660.195 247.991 660.651C247.991 661.222 248.561 661.507 249.701 661.507C250.841 661.507 251.411 661.792 251.411 662.362C251.411 662.818 251.81 663.218 252.266 663.218C252.723 663.218 253.122 663.617 253.122 664.073C253.122 664.643 253.692 664.928 254.832 664.928C255.972 664.928 256.542 665.214 256.542 665.784C256.542 666.24 256.941 666.639 257.397 666.639C257.853 666.639 258.252 667.038 258.252 667.495C258.252 668.122 258.937 668.35 260.818 668.35C262.699 668.35 263.383 668.578 263.383 669.205C263.383 669.776 263.953 670.061 265.094 670.061C266.234 670.061 266.804 670.346 266.804 670.916C266.804 671.487 267.374 671.772 268.514 671.772C269.654 671.772 270.224 672.057 270.224 672.627C270.224 673.083 270.623 673.482 271.08 673.482C271.536 673.482 271.935 673.882 271.935 674.338C271.935 674.794 272.334 675.193 272.79 675.193C273.246 675.193 273.645 675.649 273.645 676.22C273.645 677.018 272.448 677.474 267.545 678.615C264.181 679.413 261.16 680.326 260.818 680.611C260.419 680.896 259.393 683.291 256.827 690.533L254.946 690.134C253.635 689.849 253.122 689.963 253.122 690.476C253.122 690.818 253.977 691.389 255.003 691.674C256.2 691.959 257.112 691.902 257.568 691.503C257.967 691.161 258.937 688.88 259.678 686.484C260.704 683.234 261.445 681.865 262.414 681.466C263.098 681.124 266.234 680.326 269.369 679.584C272.505 678.843 275.526 678.33 276.096 678.444C276.609 678.558 277.066 678.9 277.066 679.185C277.066 679.47 277.579 680.269 278.206 680.896C278.833 681.523 279.631 682.036 279.916 682.036C280.201 682.036 280.486 682.436 280.486 682.892C280.486 683.348 280.828 683.747 281.227 683.747C281.626 683.747 281.854 684.432 281.797 685.458C281.683 686.656 281.854 687.169 282.481 687.169C283.051 687.169 283.337 687.739 283.337 688.88C283.337 690.02 283.622 690.59 284.192 690.59C284.876 690.59 285.047 691.503 285.047 699.715L282.937 699.886C281.683 699.943 279.802 699.601 278.491 698.973C277.237 698.403 276.096 697.833 275.925 697.662C275.754 697.548 276.096 696.977 276.666 696.464C277.294 695.78 277.579 694.867 277.237 692.016L277.18 693.727C277.123 694.696 276.666 695.894 276.096 696.407C275.526 696.977 273.816 697.776 272.22 698.175C269.711 698.859 269.369 699.144 269.54 700.342C269.597 701.083 269.54 702.281 269.369 703.022C269.084 704.22 268.856 704.277 261.958 704.277C256.656 704.277 254.832 704.106 254.832 703.592C254.832 703.193 255.231 701.482 255.687 699.886C256.257 697.947 256.314 696.749 255.972 696.578C255.687 696.407 255.288 696.635 255.117 697.034C255.003 697.377 254.604 698.802 254.262 700.171C253.92 701.654 253.35 702.566 252.837 702.566C252.38 702.566 251.696 702.053 251.411 701.425C251.126 700.798 250.955 700 251.126 699.715C251.297 699.429 251.126 699.144 250.841 699.144C250.556 699.144 249.188 696.806 247.877 693.898C246.508 691.047 245.425 688.537 245.425 688.366C245.425 688.195 245.197 687.682 244.969 687.34C244.741 686.941 244.285 686.713 244 686.884C243.715 687.055 242.518 686.142 239.439 682.607L233.909 684.032C230.831 684.831 228.208 685.344 228.037 685.23C227.866 685.059 228.208 684.26 228.779 683.462C229.292 682.664 229.748 681.922 229.748 681.751C229.748 681.58 229.406 681.466 229.064 681.466C228.665 681.466 227.923 682.093 227.467 682.892C226.783 684.032 226.156 684.317 224.503 684.317C222.736 684.317 221.082 683.462 215.894 679.926C209.737 675.706 209.167 675.136 204.208 668.35C201.3 664.415 198.051 660.537 196.967 659.682C195.884 658.77 194.972 657.572 194.972 656.945C194.972 656.317 194.573 655.804 194.117 655.804C193.49 655.804 193.262 655.12 193.262 653.238C193.262 651.356 193.034 650.672 192.407 650.672C191.722 650.672 191.551 649.645 191.437 645.425C191.323 642.517 191.209 638.297 191.152 636.13C191.095 633.963 190.867 630.142 190.696 627.747C190.468 624.04 190.582 623.299 191.266 623.299C191.722 623.299 192.122 622.9 192.122 622.444C192.122 621.988 192.521 621.588 192.977 621.588C193.433 621.588 193.832 621.189 193.832 620.733C193.832 620.277 194.231 619.878 194.687 619.878C195.143 619.878 195.542 619.478 195.542 619.022C195.542 618.566 195.941 618.167 196.397 618.167C196.853 618.167 197.252 617.882 197.252 617.596C197.252 617.311 197.651 617.026 198.108 617.026Z" fill="white"/>
<path d="M277.236 691.731C277.122 691.902 277.065 689.792 277.065 687.055C277.065 684.147 277.293 682.037 277.636 682.037C277.978 682.037 278.035 683.804 277.864 686.77C277.636 689.336 277.407 691.56 277.236 691.731Z" fill="#F5F8F6"/>
<path d="M233.225 662.362C232.883 661.393 232.598 658.542 232.598 655.975C232.598 653.181 232.826 651.242 233.168 651.242C233.51 651.242 233.738 653.181 233.738 655.975C233.738 658.542 234.08 661.45 234.48 662.476C235.107 664.073 234.993 664.7 233.453 668.35C232.541 670.574 231.572 672.342 231.344 672.342C231.059 672.342 230.888 672.057 230.888 671.772C230.888 671.487 231.572 669.605 232.37 667.666C233.624 664.643 233.795 663.788 233.225 662.362Z" fill="#EFEFEF"/>
<path d="M213.5 581.1C212.816 581.1 212.645 580.13 212.645 575.967V570.835H218.631C223.591 570.835 224.617 571.006 224.617 571.69C224.617 572.261 225.187 572.546 226.327 572.546C227.467 572.546 228.037 572.831 228.037 573.401C228.037 573.857 228.436 574.257 228.893 574.257C229.349 574.257 229.748 574.656 229.748 575.112C229.748 575.568 230.147 575.967 230.603 575.967C231.287 575.967 231.458 576.994 231.458 581.955C231.458 586.916 231.287 587.943 230.603 587.943C230.033 587.943 229.748 588.513 229.748 589.654C229.748 591.307 229.691 591.364 226.783 591.364C224.731 591.422 223.477 591.136 222.907 590.509C222.451 589.996 221.481 589.597 220.797 589.654C219.999 589.654 219.486 589.312 219.486 588.798C219.486 588.342 219.087 587.943 218.631 587.943C218.175 587.943 217.776 587.544 217.776 587.088C217.776 586.631 217.377 586.232 216.921 586.232C216.465 586.232 216.065 585.833 216.065 585.377C216.065 584.921 215.666 584.521 215.21 584.521C214.64 584.521 214.355 583.951 214.355 582.811C214.355 581.67 214.07 581.1 213.5 581.1Z" fill="white"/>
<path fill-rule="evenodd" clip-rule="evenodd" d="M155.294 532.856C156.263 533.027 158.144 533.198 159.512 533.198C161.28 533.198 161.907 533.426 161.907 534.053C161.907 534.68 162.591 534.909 164.472 534.909C166.353 534.909 167.037 535.137 167.037 535.764C167.037 536.334 167.608 536.619 168.748 536.619C169.888 536.619 170.458 536.904 170.458 537.475C170.458 537.931 170.857 538.33 171.313 538.33C171.769 538.33 172.168 538.729 172.168 539.186C172.168 539.756 172.738 540.041 173.879 540.041C175.019 540.041 175.589 540.326 175.589 540.896C175.589 541.353 175.988 541.752 176.444 541.752C177.014 541.752 177.299 542.322 177.299 543.463C177.299 544.603 177.584 545.173 178.154 545.173C178.61 545.173 179.009 545.458 179.009 545.744C179.009 546.029 179.523 546.827 180.15 547.454C180.777 548.082 181.689 548.595 182.145 548.595C182.601 548.595 183.114 548.88 183.285 549.165C183.456 549.45 183.285 550.306 182.886 551.047C182.487 551.731 182.259 552.473 182.316 552.758C182.373 552.986 182.088 553.157 181.746 553.157C181.347 553.157 181.176 553.271 181.461 553.442C181.689 553.613 181.347 554.241 180.72 554.868C180.093 555.495 179.58 556.293 179.58 556.579C179.58 556.864 179.979 557.548 180.435 558.004C180.891 558.46 181.29 559.145 181.29 559.43C181.29 559.715 181.575 560 181.86 560C182.145 560 182.544 560.627 182.715 561.426C182.886 562.224 183.285 562.737 183.57 562.566C183.855 562.395 184.254 562.68 184.425 563.137C184.596 563.593 184.311 564.106 183.855 564.277C183.399 564.448 183 564.277 183 563.992C183 563.707 182.316 563.251 181.461 563.08C180.549 562.909 179.808 563.023 179.751 563.365C179.637 563.707 179.009 563.992 177.014 563.992L178.154 565.133C178.781 565.817 179.865 566.957 180.606 567.756C181.632 568.896 181.746 569.353 181.233 570.436C180.834 571.12 180.264 571.862 179.922 572.09C179.58 572.318 179.18 572.261 179.009 571.919C178.838 571.634 177.812 571.348 176.672 571.234C175.019 571.12 174.164 570.607 172.51 568.725C171.37 567.357 170.458 566.444 170.458 566.729C170.401 566.957 170.002 566.558 169.432 565.874C168.919 565.19 168.292 564.79 168.064 565.019C167.836 565.247 167.494 564.962 167.323 564.448C167.151 563.878 166.638 563.422 166.182 563.422C165.726 563.422 165.213 563.023 165.042 562.566C164.871 562.11 164.472 561.825 164.187 561.996C163.902 562.167 163.218 561.711 162.762 561.027C162.306 560.285 161.907 560 161.907 560.285C161.85 560.57 161.622 560.399 161.337 559.886C160.823 558.917 160.709 558.974 159.626 560.171C158.999 560.856 158.486 561.084 158.486 560.742C158.486 560.342 158.087 560 157.631 560C157.175 560 156.776 559.601 156.776 559.145C156.776 558.689 156.377 558.289 155.921 558.289C155.465 558.289 155.065 557.89 155.065 557.434C155.065 556.978 154.666 556.579 154.21 556.579C153.64 556.579 153.355 556.008 153.355 554.868C153.355 553.727 153.07 553.157 152.5 553.157C152.044 553.157 151.645 552.758 151.645 552.302C151.645 551.845 151.246 551.446 150.79 551.446C150.22 551.446 149.935 550.876 149.935 549.735C149.935 548.595 149.65 548.025 149.08 548.025C148.395 548.025 148.224 547.055 148.224 542.892C148.224 538.729 148.395 537.76 149.08 537.76C149.536 537.76 149.935 537.361 149.935 536.904C149.935 536.448 150.334 536.049 150.79 536.049C151.246 536.049 151.645 535.65 151.645 535.194C151.645 534.737 152.044 534.338 152.5 534.338C152.956 534.338 153.412 533.939 153.469 533.426C153.526 532.685 153.925 532.57 155.294 532.856ZM153.811 539.129C154.039 539.243 155.008 539.471 155.921 539.699L157.631 540.155C155.008 537.418 154.039 536.619 153.811 536.619C153.526 536.619 153.355 537.133 153.355 537.76C153.355 538.387 153.526 539.014 153.811 539.129Z" fill="white"/>
<path d="M193.262 494.135C192.635 493.507 192.065 492.823 192.122 492.595C192.122 492.31 193.034 492.139 194.117 492.139C195.941 492.139 196.112 492.253 196.112 493.849C196.112 494.99 196.397 495.56 196.967 495.56C197.423 495.56 197.823 495.959 197.823 496.416C197.823 496.872 198.222 497.271 198.678 497.271C199.134 497.271 199.533 497.67 199.533 498.126C199.533 498.583 199.932 498.982 200.388 498.982C200.958 498.982 201.243 499.552 201.243 500.693C201.243 501.833 201.528 502.403 202.098 502.403C202.725 502.403 202.953 503.088 202.953 504.97C202.953 506.852 203.181 507.536 203.809 507.536C204.493 507.536 204.664 508.448 204.664 517.23L202.953 516.09C201.699 515.234 201.243 514.493 201.243 513.238C201.243 512.326 199.704 507.878 197.823 503.43C195.941 498.925 193.889 494.762 193.262 494.135Z" fill="white"/>
<path d="M192.179 494.705C191.609 494.078 190.981 493.222 190.696 492.88C190.468 492.481 190.582 492.139 190.924 492.139C191.266 492.139 192.179 492.994 192.92 494.021C193.718 494.99 195.884 499.495 197.766 504C200.103 509.361 201.129 512.554 200.958 513.524C200.787 514.493 200.958 515.12 201.642 515.463C202.212 515.691 203.124 516.375 203.638 516.888C204.208 517.401 204.664 518.2 204.664 518.656C204.664 519.283 204.322 519.169 203.352 518.257C202.611 517.515 201.471 516.489 200.787 515.976C199.875 515.234 199.647 514.55 199.875 513.695C200.103 512.839 199.02 509.589 196.682 504.114C194.801 499.552 192.749 495.332 192.179 494.705Z" fill="#EFEFEF"/>
<path d="M186.706 509.247C185.964 509.247 185.85 507.935 185.85 500.693V492.139H187.846C189.385 492.139 190.183 492.538 191.437 493.964C192.293 494.99 194.573 499.609 196.568 504.285C198.963 509.931 199.989 513.067 199.761 513.923C199.476 514.949 199.818 515.52 201.3 516.603C202.383 517.401 203.352 518.143 203.523 518.257C203.694 518.371 203.922 519.511 204.379 522.933H200.274C196.967 522.933 196.112 522.762 196.112 522.078C196.112 521.621 195.713 521.222 195.257 521.222C194.801 521.222 194.402 520.823 194.402 520.367C194.402 519.911 194.003 519.511 193.547 519.511C193.091 519.511 192.692 519.112 192.692 518.656C192.692 518.2 192.293 517.801 191.836 517.801C191.38 517.801 190.981 517.401 190.981 516.945C190.981 516.489 190.582 516.09 190.126 516.09C189.556 516.09 189.271 515.52 189.271 514.379C189.271 513.238 188.986 512.668 188.416 512.668C187.846 512.668 187.561 512.098 187.561 510.957C187.561 509.817 187.276 509.247 186.706 509.247Z" fill="white"/>
<path d="M6.61304 16.081C5.47285 15.3967 4.5607 14.5983 4.50369 14.3132C4.44668 13.9711 5.47285 14.3702 9.06444 16.5372L9.12145 33.6452H12.8271C14.8794 33.6452 16.6467 33.8733 16.8177 34.2155C16.9887 34.5006 17.3878 34.7857 17.6729 34.7857C18.0149 34.7857 18.9271 33.4741 19.8392 31.8774C20.6943 30.2236 21.8915 28.7409 22.5186 28.5128C23.1457 28.3417 25.1411 28.3417 26.9654 28.6269C30.1009 29.0831 30.3859 28.969 35.2317 26.5739C37.9682 25.2053 40.5336 24.1788 40.9327 24.2928C41.2747 24.4069 41.7308 24.0647 41.8448 23.4945C41.9588 22.9812 42.0729 23.2093 42.1299 24.0647C42.1869 25.4334 42.0158 25.6045 40.9327 25.4334C40.1345 25.2623 37.6831 26.1747 34.6616 27.7144C31.1841 29.4252 29.1887 30.1666 28.1056 29.9385C27.1934 29.8244 25.5401 29.5963 22.2336 29.0831L20.4663 32.6187C19.4971 34.6146 18.585 36.2684 18.471 36.3254C18.357 36.4395 17.5588 35.9833 16.7037 35.299C15.3925 34.2725 14.6514 34.1584 12.257 34.4436C10.2616 34.7287 8.95042 35.299 7.81023 36.3825C6.95509 37.2379 6.27098 37.637 6.27098 37.3519C6.27098 37.0668 6.72705 36.3254 7.29715 35.6981C8.09528 34.8427 8.32332 33.189 8.72238 17.3926L6.61304 16.081Z" fill="#EFEFEF"/>
<path d="M3.7056 20.5295C4.33271 20.5295 4.56074 19.8452 4.61775 17.9063C4.67476 16.4806 4.84579 15.3971 5.07383 15.5112C5.24486 15.6252 6.1 16.0814 8.5514 17.393L8.20934 25.947C7.98131 30.6802 7.58224 34.9572 7.3542 35.5275C7.01215 36.1548 6.44205 36.3829 5.70093 36.2118C5.07383 36.0407 4.56074 35.5275 4.56074 35.0713C4.56074 34.615 4.21869 34.2159 3.81962 34.2159C3.47757 34.2159 3.81962 33.5315 4.67476 32.6761C6.15701 31.1364 6.15701 31.0224 5.35888 29.0835C4.61775 27.3727 4.38972 27.2016 3.93364 28.114C3.64859 28.6273 3.53458 29.2546 3.64859 29.5397C3.81962 29.7678 3.7056 30.3381 3.36355 30.7943C3.0785 31.3645 2.85046 29.7108 2.85046 26.1181C2.85046 21.499 3.02149 20.5295 3.7056 20.5295Z" fill="white"/>
<path d="M9.5204 26.2327C9.40638 27.6583 9.29236 26.6318 9.29236 23.9516C9.29236 21.2714 9.40638 20.1308 9.5204 21.3854C9.63441 22.64 9.63441 24.807 9.5204 26.2327Z" fill="#F5F8F6"/>
<path d="M8.38026 29.6536C8.26624 31.0792 8.15222 30.0527 8.15222 27.3725C8.15222 24.6923 8.26624 23.5517 8.38026 24.8063C8.49428 26.0609 8.49428 28.2279 8.38026 29.6536Z" fill="#F5F8F6"/>
<path d="M26.2243 29.9393C29.7589 30.3384 30.1009 30.2244 34.4906 28.0574C37.6832 26.4606 39.7355 25.7763 41.4458 25.8334C42.985 25.8334 43.7832 26.1185 43.8402 26.6317C43.8972 27.0309 44.2962 27.3731 44.7523 27.3731C45.4934 27.3731 45.6075 28.6277 45.6075 35.0716C45.6075 41.5156 45.7215 42.7702 46.4626 42.7702C47.2037 42.7702 47.3177 44.3099 47.3177 53.035C47.3177 61.76 47.4318 63.2998 48.1729 63.2998C48.857 63.2998 49.028 64.2122 48.914 68.4321C48.8 72.2529 48.914 73.5645 49.4271 73.5645C49.8832 73.5645 50.1682 74.3059 50.1682 75.2753C50.1682 76.4158 50.4532 76.9861 51.0233 76.9861C51.5934 76.9861 51.8785 77.5564 51.8785 78.6969C51.8785 79.8374 52.1635 80.4077 52.7336 80.4077C53.1897 80.4077 53.5888 80.8069 53.5888 81.2631C53.5888 81.7193 53.9878 82.1185 54.4439 82.1185C55.014 82.1185 55.299 82.6888 55.299 83.8293C55.299 84.9698 55.5841 85.5401 56.1542 85.5401C56.7243 85.5401 57.0093 86.1103 57.0093 87.2509C57.0093 88.3914 57.2944 88.9617 57.8645 88.9617C58.6056 88.9617 58.7196 90.2162 58.7196 96.6602C58.7196 103.104 58.6056 104.359 57.8645 104.359C57.4084 104.359 57.0093 104.758 57.0093 105.214C57.0093 105.67 56.6103 106.07 56.1542 106.07C55.6981 106.07 55.299 106.469 55.299 106.925C55.299 107.381 54.9 107.78 54.4439 107.78C53.9878 107.78 53.5888 108.18 53.5888 108.636C53.5888 109.092 53.1897 109.491 52.7336 109.491C52.1065 109.491 51.8785 110.176 51.8785 112.057C51.8785 114.167 51.7075 114.624 50.9093 114.452C50.1112 114.338 49.8261 113.654 49.7121 111.487C49.5411 108.75 49.4271 108.579 46.5766 106.697C44.2962 105.271 43.2131 104.872 42.0729 105.157C40.5906 105.442 40.5336 105.385 40.9327 104.188C41.1607 103.503 41.3318 101.907 41.2747 100.652C41.2177 99.3975 40.9327 97.8008 40.5906 97.0594C40.1916 96.3751 39.4504 95.8048 38.9374 95.8048C38.3673 95.8048 36.942 94.6073 35.8018 93.1246C33.8065 90.5584 33.6355 90.0452 33.1794 84.9698C32.8374 81.5482 32.2103 78.5828 31.4691 76.815C30.2719 74.2488 30.0439 74.0778 25.2551 72.2529C22.5187 71.2835 19.8392 69.9148 19.2691 69.2875C18.528 68.4892 18.243 67.2346 18.243 64.8395C18.243 62.3303 18.0719 61.589 17.3878 61.589C16.7607 61.589 16.5327 60.9046 16.5327 59.0228C16.5327 57.1409 16.3046 56.4566 15.6775 56.4566C15.0504 56.4566 14.8224 55.7723 14.8224 53.8904C14.8224 52.4647 14.5944 51.3242 14.2523 51.3242C13.9102 51.3242 13.6822 50.811 13.6822 50.1837C13.6822 49.5564 13.1691 48.5869 12.542 48.0167C11.9149 47.5034 11.4018 46.4769 11.4018 45.7356C11.4018 44.9943 11.0598 44.481 10.5467 44.481C9.9766 44.481 9.69156 43.9108 9.69156 42.7702C9.69156 41.6297 9.40651 41.0594 8.83642 41.0594C8.38034 41.0594 7.98128 40.6602 7.98128 40.204C7.98128 39.7478 7.58221 39.3486 7.12614 39.3486C6.67006 39.3486 6.271 39.0065 6.271 38.6073C6.271 38.2651 7.01212 37.2387 7.92427 36.3262C9.3495 35.0716 10.1476 34.7865 12.656 34.7865C14.4233 34.8435 16.1336 35.1857 16.8177 35.6419C17.4448 36.1552 18.1289 36.4973 18.357 36.4973C18.642 36.4973 19.6682 34.9576 22.5187 29.5401L26.2243 29.9393Z" fill="white"/>
<path d="M20.9224 72.994C20.4093 72.0245 19.9532 70.998 20.0102 70.7129C20.0102 70.3137 20.3523 70.3137 20.9794 70.5988C21.4924 70.884 23.8868 71.8534 26.2242 72.7659C30.1579 74.3056 30.4999 74.5907 31.5831 76.9858C32.2102 78.4685 32.8943 81.8331 33.1794 84.9695C33.6354 90.0449 33.8065 90.5581 35.8018 93.1243C36.942 94.607 38.3672 95.8045 38.8803 95.8045C39.4504 95.8045 40.1915 96.3748 40.5906 97.0591C40.9326 97.8005 41.2177 99.3972 41.2747 100.652C41.3317 101.906 41.1607 103.503 40.8756 104.187C40.5336 105.385 40.5906 105.442 42.0158 105.157C43.213 104.872 44.2962 105.271 49.484 108.636L49.8831 114.338C50.0541 117.475 50.1681 120.098 50.0541 120.155C49.9401 120.269 49.028 119.927 48.0018 119.471C46.3485 118.672 46.1775 118.33 45.8354 115.308C45.6644 113.54 45.4364 111.658 45.3224 111.202C45.1513 110.745 44.2392 110.175 43.213 109.89C42.1868 109.662 40.8186 109.491 40.1915 109.491C39.5074 109.548 38.3672 108.693 37.4551 107.495C36.0298 105.613 35.9728 105.328 37.113 100.082L33.4074 96.3748C31.4121 94.3219 29.3597 91.6986 28.8467 90.5011C28.1055 88.7903 28.0485 87.9349 28.5616 85.939C29.1317 83.772 29.0177 83.3157 27.5354 80.8636C26.3382 78.8107 25.3691 77.8982 23.6588 77.328C22.4046 76.8718 21.1504 76.6437 20.8653 76.8718C20.5803 77.0999 20.7513 76.7007 21.1504 75.9593C21.8345 74.8188 21.8345 74.4766 20.9224 72.994Z" fill="#F5F8F6"/>
<path d="M20.8085 76.7008C20.0674 77.7272 20.0104 77.5562 20.0674 74.7048C20.0674 71.8535 20.1244 71.6824 20.8656 72.7089C21.3216 73.3362 21.6637 74.2486 21.6637 74.7048C21.6637 75.1611 21.2646 76.0735 20.8085 76.7008Z" fill="#EFEFEF"/>
<path id='fog belt' d="M22.6327 84.0575C20.1813 79.2673 19.7822 78.1267 20.3523 77.3854C20.9794 76.587 21.3785 76.587 23.4879 77.3284C25.4262 77.9557 26.2813 78.697 27.5355 80.864C29.0178 83.3162 29.1318 83.7724 28.5617 85.9964C28.0486 87.9353 28.1056 88.7907 28.8467 90.5585C29.3598 91.699 31.4122 94.3223 37.1131 100.082L36.486 102.819C35.9729 105.328 36.0299 105.614 37.5122 107.495C38.3673 108.693 39.5075 109.548 40.1916 109.491C40.8187 109.491 42.1869 109.662 43.2131 109.89C44.2393 110.176 45.1514 110.746 45.3224 111.202C45.4365 111.658 45.6645 113.54 45.8355 115.365C46.1776 118.444 46.2916 118.673 48.1729 119.471C49.2561 119.927 50.1682 120.668 50.1682 121.068C50.1682 121.41 48.8 122.208 47.0327 122.778C45.3224 123.292 43.8972 123.919 43.8972 124.204C43.8972 124.432 45.3224 129.508 47.0327 135.438C48.8 141.369 50.2823 146.33 50.3393 146.387C50.3963 146.501 51.5935 146.159 53.0187 145.703C54.4439 145.19 55.9262 144.848 56.3252 144.848C56.8383 144.848 57.0094 146.273 57.0094 149.98C57.0094 154.143 56.8383 155.112 56.1542 155.112C55.6981 155.112 55.1851 155.626 55.014 156.253C54.786 157.108 54.2729 157.394 52.7337 157.394C51.6505 157.394 50.1112 157.622 49.3131 157.964C48.0589 158.477 47.7738 158.363 47.0327 156.823C46.4056 155.626 45.7785 155.112 44.7523 155.112C43.9542 155.112 43.3271 155.341 43.3271 155.683C43.3271 156.025 43.6122 156.31 44.0112 156.424C44.4103 156.481 44.5243 156.937 44.2963 157.565C44.0682 158.078 43.5551 158.42 43.2131 158.249C42.814 158.135 42.3009 157.394 42.0729 156.709C41.8449 155.854 40.5337 154.827 38.5383 153.858C36.771 152.945 35.1178 152.261 34.7757 152.261C34.4907 152.261 33.7495 153.744 33.2365 155.512C32.4953 157.907 31.7542 158.99 30.5 159.789C29.5879 160.359 27.7636 160.815 26.5094 160.815C24.7991 160.815 24.457 160.986 25.0841 161.385C25.5402 161.671 26.7374 161.956 27.6495 161.956C28.5617 161.956 30.272 161.385 31.3551 160.644C32.4383 159.903 33.5215 158.648 33.7495 157.907C33.9776 157.165 34.4337 155.854 35.3458 153.402L37.9112 154.713C39.5645 155.512 40.7047 156.538 41.0467 157.565C41.3888 158.42 42.1869 159.275 42.928 159.446C43.8402 159.675 44.4103 159.447 46.0636 157.108L46.4056 158.42C46.6907 159.504 47.0327 159.618 48.629 159.389C49.5981 159.218 51.5935 158.876 53.0187 158.705C55.2991 158.363 55.5271 158.42 55.1851 159.275C54.9 159.789 54.729 161.385 54.729 162.811C54.729 164.693 54.5009 165.377 53.8738 165.377C53.3037 165.377 53.0187 165.948 53.0187 167.088C53.0187 168.229 53.3037 168.799 53.8738 168.799C54.4439 168.799 54.729 169.369 54.729 170.51C54.729 171.65 55.014 172.22 55.5841 172.22C56.0402 172.22 56.4393 172.62 56.4393 173.076C56.4393 173.532 56.8383 173.931 57.2944 173.931C57.9785 173.931 58.1495 174.901 58.1495 184.196H53.0187C48.857 184.196 47.8879 184.025 47.8879 183.341C47.8879 182.884 47.4888 182.485 47.0327 182.485C46.3486 182.485 46.1776 183.455 46.1776 187.618C46.1776 191.781 46.3486 192.75 47.0327 192.75C47.6598 192.75 47.8879 193.434 47.8879 195.316C47.8879 197.198 48.1159 197.882 48.743 197.882C49.3131 197.882 49.5981 198.453 49.5981 199.593C49.5981 200.734 49.8832 201.304 50.4533 201.304C51.0234 201.304 51.3084 201.874 51.3084 203.015C51.3084 204.155 51.5935 204.726 52.1636 204.726C52.7337 204.726 53.0187 205.296 53.0187 206.436C53.0187 207.577 53.3037 208.147 53.8738 208.147C54.4439 208.147 54.729 208.717 54.729 209.858C54.729 210.998 55.014 211.569 55.5841 211.569C56.1542 211.569 56.4393 212.139 56.4393 213.279C56.4393 214.42 56.7243 214.99 57.2944 214.99C57.7505 214.99 58.1495 215.389 58.1495 215.846C58.1495 216.302 58.5486 216.701 59.0047 216.701C59.4608 216.701 59.8598 217.157 59.8598 217.728C59.8598 218.241 59.7458 219.267 59.5748 220.009C59.4038 220.693 59.0617 221.263 58.7196 221.263C58.4346 221.263 57.3514 220.123 56.4393 218.697C55.071 216.644 54.3299 216.074 52.6196 215.789C51.0804 215.561 49.028 215.903 40.7617 218.583L37.6262 216.986C34.7757 215.504 34.2056 215.389 31.4692 215.903C28.5617 216.416 28.4477 216.359 28.0486 215.047C27.8206 214.135 26.2243 212.709 23.8299 211.17C20.4093 209.003 19.3262 208.66 14.5944 208.033C11.6299 207.634 9.06449 207.406 8.89346 207.577C8.77944 207.748 8.49439 208.546 8.32337 209.459C8.03832 210.827 8.26636 211.17 10.8318 212.595C13.5112 214.021 13.6822 214.249 13.6822 218.697L19.3832 220.978C24.115 222.86 25.2551 223.544 25.8252 224.913C26.1673 225.768 27.4785 227.08 28.6187 227.764C30.272 228.677 30.8991 229.475 31.2981 231.243C31.6402 232.726 31.5832 234.037 31.1841 234.95C30.671 236.204 31.0131 236.945 33.6925 241.051C35.8589 244.359 37.1131 245.785 37.9112 245.728C38.7664 245.728 39.3365 246.526 40.1916 248.693C41.1037 251.145 41.6738 251.772 43.2131 252.286C44.2963 252.628 45.6075 253.483 46.2346 254.225C47.3178 255.479 47.3178 255.479 45.6075 258.901C44.6953 260.783 43.8972 262.893 43.8972 263.634C43.8972 264.318 44.4673 267.74 45.0944 271.161C46.3486 277.32 46.3486 277.491 44.2393 285.418L46.9187 290.151C48.4009 292.717 49.5981 295.341 49.5981 295.968C49.5981 296.595 50.2252 297.679 51.0234 298.42C51.8215 299.104 52.4486 300.017 52.4486 300.416C52.4486 300.758 52.2776 301.1 52.0495 301.1C51.7645 301.1 51.3084 300.815 50.9094 300.416C50.3393 299.846 49.9972 300.074 49.1991 301.556C48.629 302.583 47.7168 304.18 47.2038 305.149C46.6337 306.062 45.7215 306.803 45.2084 306.803C44.6383 306.746 43.7262 307.316 42.2439 309.369V307.259C42.1869 305.719 41.9589 305.092 41.3318 305.092C40.8757 305.092 40.4766 304.693 40.4766 304.237C40.4766 303.781 40.0776 303.381 39.6215 303.381C39.1654 303.381 38.7664 302.982 38.7664 302.526C38.7664 302.07 38.3673 301.671 37.9112 301.671C37.4551 301.671 37.0561 301.271 37.0561 300.815C37.0561 300.359 36.657 299.96 36.2009 299.96C35.6308 299.96 35.3458 299.389 35.3458 298.249C35.3458 297.108 35.0608 296.538 34.4907 296.538C34.0346 296.538 33.6355 296.139 33.6355 295.683C33.6355 295.227 33.2365 294.827 32.7804 294.827C32.2103 294.827 31.9252 294.257 31.9252 293.117C31.9252 291.976 31.6402 291.406 31.0701 291.406C30.614 291.406 30.215 291.007 30.215 290.55C30.215 290.094 29.8159 289.695 29.3598 289.695C28.7897 289.695 28.5047 289.125 28.5047 287.984C28.5047 286.844 28.2196 286.273 27.6495 286.273C27.0794 286.273 26.7944 285.703 26.7944 284.563C26.7944 283.422 26.5094 282.852 25.9393 282.852C25.3122 282.852 25.0841 282.167 25.0841 280.286C25.0841 278.404 24.8561 277.719 24.229 277.719C23.5449 277.719 23.3738 276.864 23.3738 273.442C23.3738 270.021 23.5449 269.165 24.229 269.165C24.7991 269.165 25.0841 268.538 25.0841 267.17C25.0841 265.63 25.3692 265.117 26.2243 264.888C27.0224 264.66 27.3645 264.147 27.3645 262.893C27.3645 261.752 27.6495 261.182 28.2196 261.182C28.6757 261.182 29.0748 260.783 29.0748 260.326C29.0748 259.87 29.4738 259.471 29.9299 259.471C30.386 259.471 30.7851 259.072 30.7851 258.616C30.7851 258.159 31.1841 257.76 31.6402 257.76C32.2103 257.76 32.4953 257.19 32.4953 254.339H29.0748C26.3953 254.339 25.6542 254.167 25.6542 253.483C25.6542 253.027 25.2551 252.628 24.7991 252.628C24.343 252.628 23.9439 252.229 23.9439 251.772C23.9439 251.316 23.5449 250.917 23.0888 250.917C22.4047 250.917 22.2337 250.176 22.2337 247.495C22.2337 244.815 22.0626 244.074 21.3785 244.074C20.9224 244.074 20.5234 243.675 20.5234 243.218C20.5234 242.762 20.1243 242.363 19.6682 242.363C19.0981 242.363 18.8131 241.793 18.8131 240.652C18.8131 239.512 18.528 238.941 17.9579 238.941C17.5019 238.941 17.1028 238.542 17.1028 238.086C17.1028 237.63 16.7037 237.231 16.2477 237.231C15.7916 237.231 15.3925 236.831 15.3925 236.375C15.3925 235.919 14.9935 235.52 14.5374 235.52C14.0813 235.52 13.6822 235.121 13.6822 234.664C13.6822 234.208 13.2832 233.809 12.8271 233.809C12.371 233.809 11.972 233.41 11.972 232.954C11.972 232.497 11.5729 232.098 11.1168 232.098C10.6607 232.098 10.2617 231.699 10.2617 231.243C10.2617 230.787 9.86262 230.387 9.40654 230.387C8.95047 230.387 8.5514 229.988 8.5514 229.532C8.5514 229.076 8.15234 228.677 7.69626 228.677C7.12617 228.677 6.84112 228.106 6.84112 226.966C6.84112 225.825 6.55608 225.255 5.98598 225.255C5.52991 225.255 5.13084 224.856 5.13084 224.4C5.13084 223.943 4.73178 223.544 4.2757 223.544C3.70561 223.544 3.42056 222.974 3.42056 221.833C3.42056 220.693 3.13551 220.123 2.56542 220.123C1.93832 220.123 1.71028 219.438 1.71028 217.556C1.71028 215.675 1.48224 214.99 0.85514 214.99C0.171028 214.99 0 214.249 0 211.569C0 208.888 0.171028 208.147 0.85514 208.147C1.48224 208.147 1.71028 207.463 1.71028 205.581C1.71028 203.699 1.93832 203.015 2.56542 203.015C3.07851 203.015 3.42056 202.501 3.42056 201.589C3.42056 200.22 3.47757 200.22 5.01682 200.962C5.87196 201.418 6.84112 201.646 7.12617 201.475C7.46823 201.304 7.12617 200.677 6.44206 200.049C5.70094 199.479 5.13084 198.795 5.13084 198.453C5.13084 198.167 4.73178 197.882 4.2757 197.882C3.81963 197.882 3.42056 197.483 3.42056 197.027C3.42056 196.571 2.96449 196.172 2.4514 196.172C1.48224 196.172 1.48224 195.601 1.88131 188.473C2.16636 183.055 2.50841 180.546 3.07851 179.919C3.53458 179.463 4.16168 179.064 4.50374 179.064C4.8458 179.064 5.41589 177.866 5.70094 176.383C6.21402 173.931 6.49907 173.589 8.15234 173.19C9.1215 172.962 10.4897 172.791 11.1168 172.791C11.7439 172.791 13.1122 171.935 14.1383 170.909C15.1645 169.939 15.9626 168.742 15.9626 168.4C15.9626 168 15.7346 167.658 15.3925 167.658C15.1075 167.658 14.9365 167.43 15.1075 167.088C15.2785 166.803 14.9935 166.176 14.5374 165.833C14.0243 165.434 13.6822 165.377 13.6822 165.662C13.6822 166.005 13.3402 165.833 12.8271 165.377C12.314 164.921 11.972 164.807 11.972 165.092C11.972 165.434 11.6869 165.32 11.2879 164.978C10.8888 164.579 10.3757 164.408 10.0907 164.693C9.86262 164.921 9.69159 164.75 9.69159 164.408C9.69159 164.009 9.97664 163.666 10.2617 163.666C10.6037 163.666 10.8318 161.385 10.8318 157.964C10.8318 153.402 11.0028 152.204 11.6869 151.976C12.314 151.748 12.5421 150.778 12.5421 148.269C12.5421 145.589 12.7131 144.848 13.3972 144.848C14.0813 144.848 14.2523 143.992 14.2523 140.571C14.2523 137.149 14.0813 136.294 13.3972 136.294C12.8271 136.294 12.5421 135.723 12.5421 134.583C12.5421 133.442 12.257 132.872 11.6869 132.872C11.0028 132.872 10.8318 132.131 10.8318 129.622C10.7748 126.656 11.0028 126.143 12.5421 124.774C14.1953 123.235 14.2523 123.007 13.8533 119.927C13.5112 116.848 13.6252 116.563 14.8794 115.65C16.1907 114.681 16.2477 114.396 15.3925 107.21L16.9318 107.096C18.3 106.925 18.6991 106.412 20.0673 102.648C21.4925 98.8274 21.8916 98.2571 26.2243 96.0901L25.9393 92.9536C25.6542 90.7296 24.6851 88.1064 22.6327 84.0575Z" fill="white"/>
<path d="M22.1766 85.8814C20.9795 83.6574 20.0103 81.3193 19.9533 80.692C19.9533 80.0647 21.2645 81.9466 22.8038 84.8549C25.1981 89.2459 25.6542 90.6146 25.6542 93.1237C25.6542 95.9751 25.5402 96.1462 23.5449 97.2297C21.7206 98.1991 21.2075 98.9975 19.9533 102.305C18.6991 105.727 18.3 106.354 15.1075 107.152L15.5066 110.745C15.9056 114.052 15.7916 114.452 14.5944 115.478C13.3972 116.505 13.2832 117.018 13.5112 119.755C13.7393 122.606 13.6252 123.006 12.314 124.317C11.4589 125.116 10.8318 125.515 10.8318 125.173C10.8318 124.83 11.2309 124.089 11.6869 123.462C12.257 122.72 12.5421 121.067 12.5421 118.9C12.5421 116.105 12.7131 115.364 13.6823 114.794C14.7084 114.109 14.7654 113.71 13.9673 106.069H15.8486C17.6159 106.069 17.7299 105.955 19.2122 101.735C20.6374 97.7999 21.0365 97.2297 25.3692 95.0626L24.9131 92.5535C24.6281 91.1278 23.4309 88.1054 22.1766 85.8814Z" fill="#EFEFEF"/>
<path d="M18.5281 88.3911C19.1552 88.3911 19.4972 87.5357 19.7252 85.4257L20.0673 82.4033L21.0365 84.1141C21.6066 85.0265 22.6327 86.9084 23.2598 88.22C23.9439 89.5887 24.514 91.6986 24.514 92.9532C24.514 94.9491 24.286 95.3483 22.6327 96.1467C21.6636 96.6599 20.6374 97.4013 20.4094 97.7434C20.1813 98.0856 19.4402 99.9675 18.8131 101.906C17.958 104.644 17.3879 105.556 16.3617 105.841C15.6776 106.012 14.9935 106.012 14.8224 105.784C14.6514 105.613 14.8795 105.499 15.2215 105.499C15.7346 105.499 15.9626 104.416 15.9626 102.077C15.9626 99.3972 16.1337 98.6559 16.8178 98.6559C17.5019 98.6559 17.6729 97.6864 17.6729 93.5235C17.6729 89.3606 17.8439 88.3911 18.5281 88.3911Z" fill="white"/>
<path d="M43.7833 124.204C43.7263 124.033 44.8094 123.463 46.2347 123.007H46.1777C47.6029 122.493 49.0851 122.094 49.4272 122.094C49.9403 122.037 50.1683 123.007 50.1683 125.174C50.1683 127.569 50.3394 128.31 51.0235 128.31C51.7076 128.31 51.8786 129.165 51.8786 132.587C51.8786 136.009 52.0496 136.864 52.7337 136.864C53.3038 136.864 53.5889 137.434 53.5889 138.575C53.5889 139.715 53.8739 140.286 54.444 140.286C55.0141 140.286 55.2992 140.856 55.2992 141.996C55.2992 143.137 55.5842 143.707 56.1543 143.707C56.6104 143.707 57.0094 143.878 57.0094 144.163C57.0094 144.392 55.5272 145.019 53.7029 145.532C51.9356 146.045 50.3964 146.444 50.3394 146.387C50.2823 146.33 48.8001 141.426 47.0328 135.438C45.3225 129.508 43.8403 124.432 43.7833 124.204Z" fill="#F5F8F6"/>
<path d="M30.5 159.788C31.7542 158.99 32.4953 157.906 33.2365 155.511C33.8066 153.743 34.4907 152.261 34.7757 152.261C35.1178 152.261 36.771 152.945 38.5383 153.857C40.5337 154.827 41.8449 155.853 42.0729 156.709C42.3009 157.393 42.814 158.134 43.1561 158.249C43.5552 158.42 44.0682 158.077 44.2963 157.564C44.5243 156.937 44.4103 156.481 44.0112 156.424C43.6122 156.31 43.3271 156.024 43.3271 155.682C43.3271 155.34 43.9542 155.112 44.7524 155.112C45.7215 155.112 46.4056 155.625 46.9757 156.709C47.7738 158.191 47.9449 158.249 50.8524 157.906C52.5056 157.735 54.2159 157.393 54.558 157.222C55.014 156.994 55.2991 157.165 55.2991 157.678C55.2991 158.306 54.501 158.591 52.5626 158.762C51.0804 158.876 49.1991 159.161 48.2869 159.332C47.0327 159.617 46.6907 159.446 46.0636 157.108L45.0944 158.477C44.4103 159.446 43.8402 159.674 42.871 159.446C42.1869 159.275 41.3888 158.42 41.0467 157.564C40.7047 156.538 39.5645 155.511 35.3458 153.401L34.7187 154.998C34.4337 155.853 33.9776 157.165 33.7495 157.906C33.5215 158.648 32.4383 159.902 31.3552 160.644C30.272 161.385 28.5617 161.955 27.6495 161.955C26.7374 161.955 25.5402 161.67 25.0841 161.385C24.457 160.986 24.7991 160.815 26.5094 160.815C27.7636 160.815 29.5879 160.359 30.5 159.788Z" fill="#EFEFEF"/>
<path d="M9.40649 172.163C10.0906 172.22 11.2878 171.422 12.542 169.996C13.6252 168.799 14.8794 167.715 15.2214 167.715C15.6205 167.658 15.9626 168 15.9626 168.343C15.9626 168.742 15.1074 169.939 14.0813 170.966C13.1121 171.992 11.7439 172.791 11.1168 172.791C10.4897 172.791 9.12144 172.962 8.15228 173.19C6.49901 173.589 6.21397 173.931 5.70088 176.326C5.41583 177.866 4.90275 179.064 4.56069 179.064C4.21864 179.064 3.9906 178.55 3.9906 177.923C3.9906 177.296 4.38967 175.756 4.84574 174.501C5.47284 172.848 6.04294 172.22 6.95509 172.106C7.69621 172.106 8.77939 172.106 9.40649 172.163Z" fill="#EFEFEF"/>
<path d="M9.23551 211.682C8.20934 210.941 7.9813 210.37 8.26635 209.173V209.116C8.5514 207.975 9.00747 207.576 10.0336 207.576C10.7748 207.576 13.3972 207.861 15.7916 208.203C19.4402 208.717 20.9224 209.287 23.9439 211.226C26.2243 212.709 27.8206 214.134 28.0486 215.047C28.4477 216.358 28.5617 216.415 31.4692 215.902C34.2056 215.389 34.7757 215.503 40.7617 218.582L45.3224 217.043C49.2561 215.731 50.2252 215.617 52.4486 216.13C53.8738 216.415 55.128 216.871 55.2991 217.157L56.8383 219.723C57.6935 221.091 58.4346 221.719 59.0047 221.548C59.4608 221.377 59.9738 220.578 60.0879 219.666C60.2589 218.297 60.2589 218.297 60.3729 219.951C60.4299 221.32 60.0879 222.004 59.2897 222.403C58.6626 222.688 58.0925 222.916 57.9785 222.802C57.8645 222.745 56.8953 221.491 55.8122 220.008C54.5579 218.24 53.3037 217.214 52.2776 216.986C51.4224 216.814 48.515 217.385 40.3626 219.837L37.4551 218.183C35.0037 216.814 34.0916 216.643 32.2103 216.929C30.9561 217.157 29.4168 217.499 28.7897 217.613C27.8776 217.841 27.5925 217.556 27.3075 216.301C27.0224 215.161 25.8822 214.02 23.3168 212.309C20.4093 210.37 18.8131 209.743 15.3925 209.23C13.0551 208.831 10.6607 208.717 10.0906 208.945C9.57757 209.116 9.12149 209.515 9.12149 209.857C9.12149 210.142 10.2617 210.998 11.6869 211.682C14.0243 212.88 14.2523 213.165 14.2523 214.99C14.1953 216.073 14.5374 217.271 14.9364 217.613C15.3355 217.955 17.9579 219.096 20.7514 220.179C24.8561 221.719 25.9393 222.403 26.4523 223.658C26.7944 224.513 28.1056 225.882 29.3598 226.623C31.1271 227.707 31.8112 228.619 32.3243 230.501C32.8374 232.212 32.8944 233.409 32.4953 234.493C31.9822 235.918 32.2673 236.603 34.6047 240.366C36.657 243.56 37.6832 244.643 38.7664 244.757C39.9065 244.871 40.4196 245.556 41.3318 248.008C42.2439 250.517 42.757 251.087 44.1252 251.43C45.0944 251.601 46.3486 252.57 48.4579 255.478L44.8093 263.747L46.1776 270.59C47.4888 277.32 47.4888 277.491 45.4935 284.847L48.1159 289.694C49.5411 292.375 50.7383 294.998 50.7383 295.511C50.7383 296.081 51.5364 297.222 52.5056 298.077C53.5318 298.99 55.1851 300.871 58.1495 305.091H63.3944C68.4112 305.091 68.7533 305.148 70.2355 306.631C71.4897 307.886 71.8318 308.798 71.8318 310.794C71.8888 312.79 72.2879 313.931 73.8271 315.926C74.8533 317.352 76.0505 319.291 76.4495 320.203C76.8486 321.116 78.6159 326.419 80.3832 331.894C83.5187 341.474 83.8037 342.045 87.1673 345.979C90.5879 350.028 90.6449 350.256 91.158 354.533C91.443 357.385 92.2411 360.35 93.3243 362.688C94.2365 364.741 95.5477 368.562 97.543 376.089L101.192 378.37C103.187 379.625 104.84 380.823 104.897 381.051C104.897 381.336 104.441 381.336 103.871 381.165C103.358 380.994 101.477 379.853 99.7664 378.656C96.6879 376.546 96.6309 376.489 95.2626 371.47C94.4645 368.391 93.3813 365.654 92.4122 364.513C91.443 363.258 90.4738 362.631 89.5047 362.688C88.7066 362.688 87.1673 363.258 86.0841 363.943C84.5449 364.855 83.5757 365.026 81.8084 364.798C79.5851 364.456 79.471 364.513 74.9673 370.615L70.4065 370.672C67.4421 370.672 64.4776 370.273 61.9692 369.531C58.8337 368.562 57.6935 367.878 55.4131 365.54C53.1327 363.087 52.2206 362.517 48.857 361.662C46.7477 361.148 45.0374 360.521 45.0374 360.236C45.0374 360.008 46.1206 360.008 47.4318 360.179C48.8 360.407 50.1112 360.806 50.4533 361.034C50.7953 361.32 51.4794 361.548 51.9925 361.548C52.5626 361.548 54.2729 362.916 55.8122 364.513C58.0355 366.965 59.2327 367.707 61.9122 368.505C63.9075 369.132 67.1 369.531 74.3972 369.474L76.6776 366.395C78.9009 363.43 79.015 363.315 81.2383 363.658C83.0056 363.943 83.9748 363.715 85.514 362.802C86.5972 362.118 88.1935 361.548 89.0486 361.548C90.5309 361.548 90.6449 361.377 90.6449 359.096C90.6449 357.784 90.4168 355.332 90.1888 353.621C89.8467 350.941 89.3337 350.028 86.3122 346.493C82.8608 342.531 82.7786 342.276 79.3224 331.569L79.243 331.324C76.5066 322.77 75.1953 319.462 73.4851 317.067C71.6608 314.501 71.2617 313.474 71.2617 311.364C71.2617 309.254 70.9766 308.513 67.7841 305.377L57.8645 306.175L55.9832 303.609C54.2159 301.157 54.1019 301.1 53.0187 302.069C52.1065 302.867 51.7075 302.924 51.1374 302.411C50.6243 301.841 50.1112 302.297 48.857 304.521C47.9449 306.232 46.8047 307.487 46.0065 307.715C45.3224 307.886 44.2963 308.627 43.7832 309.311C43.2701 309.939 42.7 310.338 42.529 310.053C42.3579 309.825 42.643 309.026 43.1561 308.228C43.7262 307.43 44.6953 306.745 45.3224 306.631C46.0636 306.574 47.0327 305.434 48.0019 303.495C49.3701 300.986 49.7692 300.586 50.8523 300.871C51.6505 301.1 52.2776 300.929 52.5056 300.415C52.7336 299.959 52.2206 299.161 51.2514 298.362C50.3393 297.678 49.5981 296.594 49.5981 295.967C49.5981 295.34 48.4009 292.717 44.2393 285.417L45.3224 281.425C46.3486 277.491 46.3486 277.32 45.0944 271.161C44.4673 267.682 43.8972 264.318 43.8972 263.576C43.8972 262.892 44.6953 260.782 45.6075 258.9C47.3178 255.478 47.3178 255.478 46.2346 254.167C45.6075 253.482 44.2963 252.627 43.2131 252.285C41.6738 251.772 41.1037 251.144 40.1916 248.692C39.3365 246.525 38.7664 245.727 37.9112 245.727C37.1131 245.784 35.8589 244.358 33.6925 241.051C31.0131 236.945 30.671 236.203 31.1841 234.949C31.5832 234.036 31.6402 232.725 31.2981 231.242C30.8991 229.474 30.272 228.676 28.6187 227.764C27.4785 227.079 26.1673 225.768 25.8252 224.912C25.2551 223.544 24.115 222.859 13.6822 218.696V216.415C13.7392 214.476 13.5112 214.02 12.143 213.393C11.2878 212.994 9.97663 212.252 9.23551 211.682Z" fill="#EFEFEF"/>
<path id='tallest tree' d="M9.00738 209.971C8.95037 209.686 9.1214 209.287 9.40645 209.116C9.6915 208.888 10.4326 208.717 11.0597 208.717C11.7438 208.717 13.9102 209.002 15.9625 209.344C18.756 209.743 20.5803 210.542 23.3167 212.309C25.8822 214.02 27.0223 215.161 27.3074 216.301C27.5924 217.556 27.8775 217.841 28.7896 217.613C29.4167 217.499 30.956 217.157 32.2102 216.929C34.0915 216.643 35.0037 216.815 40.3625 219.837L45.1513 218.354C48.1728 217.442 50.5672 216.986 51.8784 217.214C53.4747 217.442 54.2728 218.069 55.698 220.236C56.7242 221.719 57.9214 222.973 58.2635 222.973C58.6625 222.973 59.4607 222.688 59.9737 222.289C60.4868 221.89 61.0569 220.749 61.399 218.126L61.513 220.008C61.551 221.225 61.8551 221.833 62.4252 221.833C62.9952 221.833 63.2803 222.403 63.2803 223.544C63.2803 224.684 63.5653 225.254 64.1354 225.254C64.8766 225.254 64.9906 226.566 64.9906 233.808C64.9906 241.051 64.8766 242.362 64.1354 242.362C63.5653 242.362 63.2803 242.933 63.2803 244.073C63.2803 245.214 62.9952 245.784 62.4252 245.784C61.9691 245.784 61.456 246.354 61.285 247.096C61.1139 247.78 60.9999 249.719 60.9999 251.373C60.9999 253.654 61.228 254.338 61.8551 254.338C62.5392 254.338 62.7102 255.193 62.7102 258.615C62.7102 262.037 62.5392 262.892 61.8551 262.892C61.285 262.892 60.9999 263.462 60.9999 264.603C60.9999 265.743 60.7149 266.314 60.1448 266.314C59.6887 266.314 59.2896 266.713 59.2896 267.169C59.2896 267.625 58.8906 268.024 58.4345 268.024C57.8074 268.024 57.5794 268.709 57.5794 270.591C57.5794 272.472 57.8074 273.157 58.4345 273.157C59.0046 273.157 59.2896 273.727 59.2896 274.868C59.2896 276.008 59.5747 276.578 60.1448 276.578C60.7149 276.578 60.9999 277.149 60.9999 278.289C60.9999 279.43 61.285 280 61.8551 280C62.3111 280 62.7102 280.399 62.7102 280.855C62.7102 281.312 63.1093 281.711 63.5653 281.711C64.1354 281.711 64.4205 282.281 64.4205 283.421C64.4205 284.562 64.7055 285.132 65.2756 285.132C65.7317 285.132 66.1308 285.531 66.1308 285.988C66.1308 286.444 66.5298 286.843 66.9859 286.843C67.442 286.843 67.841 287.242 67.841 287.698C67.841 288.155 68.2401 288.554 68.6962 288.554C69.1523 288.554 69.5513 288.953 69.5513 289.409C69.5513 289.865 69.9504 290.265 70.4065 290.265C70.8625 290.265 71.2616 290.664 71.2616 291.12C71.2616 291.576 71.6607 291.975 72.1167 291.975C72.5728 291.975 72.9719 292.375 72.9719 292.831C72.9719 293.287 73.3709 293.686 73.827 293.686C74.5111 293.686 74.6822 294.713 74.6822 299.674C74.6822 304.635 74.8532 305.662 75.5373 305.662C75.9934 305.662 76.3924 306.061 76.3924 306.517C76.3924 306.973 76.7915 307.373 77.2476 307.373C77.9317 307.373 78.1027 308.114 78.1027 310.794C78.1027 313.474 77.9317 314.216 77.2476 314.216C76.6205 314.216 76.3924 314.843 76.4495 319.063L74.3971 316.383C72.8009 314.159 72.4018 313.132 72.4018 310.965C72.4018 308.627 72.1167 307.943 68.6962 304.521L58.4345 305.206L56.3251 302.126C55.128 300.472 53.4177 298.534 52.4485 297.849C51.5364 297.108 50.7382 296.081 50.7382 295.568C50.7382 294.998 49.598 292.375 45.4364 284.847L46.4625 281.14C47.4887 277.491 47.4887 277.377 44.8093 263.747L48.4579 255.479L47.1466 253.654C46.3485 252.57 45.0943 251.601 44.1251 251.43C42.7569 251.087 42.2438 250.517 41.3317 248.008C40.4195 245.556 39.9065 244.872 38.7663 244.758C37.6831 244.643 36.6569 243.56 34.6616 240.366C32.2672 236.603 31.9822 235.918 32.4952 234.55C32.8943 233.352 32.8373 232.269 32.2102 230.444C31.6401 228.676 30.785 227.593 29.2457 226.623C28.0485 225.882 26.7943 224.513 26.4522 223.658C25.9392 222.403 24.856 221.719 20.7513 220.179C17.9579 219.096 15.3354 217.955 14.9364 217.613C14.5373 217.271 14.1952 216.073 14.2522 214.99C14.2522 213.165 14.0242 212.88 11.6868 211.739C10.2616 210.998 9.06439 210.199 9.00738 209.971Z" fill="white"/>
<path id='two ways' d="M51.0803 302.981C51.8784 303.552 52.1635 303.438 52.8476 302.411C53.3036 301.67 53.8167 301.1 53.9878 301.1C54.1588 301.1 55.0139 302.24 57.5793 306.232H62.8812C67.556 306.232 68.2971 306.403 69.4373 307.544C70.4064 308.456 70.7485 309.425 70.7485 311.364C70.7485 313.474 71.1476 314.444 72.9719 316.953C74.7962 319.348 75.9364 322.085 78.9008 331.21C82.4354 342.159 82.6064 342.558 85.856 346.322C87.7373 348.489 89.3906 350.656 89.5616 351.169C89.7326 351.739 90.1317 354.305 90.3597 356.986C90.7588 361.605 90.7018 361.833 89.7326 361.377C88.9915 361.091 87.8513 361.434 86.2551 362.403C84.3167 363.544 83.2906 363.772 81.4093 363.544C78.9952 363.207 78.9584 363.257 74.6025 369.194L74.3971 369.474L70.4064 369.531C68.1831 369.531 64.7055 369.075 62.6532 368.562C59.4036 367.707 58.4915 367.136 56.3821 364.741C55.0139 363.201 52.9616 361.605 51.8784 361.206C50.7952 360.749 49.199 360.407 48.3438 360.407C47.4317 360.407 46.3485 360.293 45.8924 360.122C45.3223 359.951 45.0373 359.039 45.0373 357.271C45.0373 355.389 45.2653 354.704 45.8924 354.704C46.4625 354.704 46.7476 354.134 46.7476 352.994C46.7476 352.081 47.5457 349.686 48.5149 347.747C49.9971 344.611 50.1681 343.926 49.655 342.444C49.313 341.531 49.0279 338.11 49.0279 334.916C49.0279 330.069 48.8569 329.043 48.1728 329.043C47.4887 329.043 47.3177 328.301 47.3177 325.621C47.3177 323.283 47.0896 322.199 46.6335 322.199C46.2345 322.199 45.4934 321.23 44.9233 320.089C44.4102 318.835 43.9541 316.212 43.8971 313.931C43.8401 311.764 43.8401 309.597 43.8401 309.254C43.8971 308.855 44.6952 308.228 45.6074 307.943C46.7476 307.563 47.7927 306.517 48.7429 304.806C49.9971 302.582 50.2821 302.354 51.0803 302.981Z" fill="white"/>
<path d="M70.2926 306.689C69.3804 305.891 67.8982 305.092 66.986 304.921L65.2758 304.693L66.986 304.579C68.2402 304.522 69.2094 304.978 70.5776 306.347C72.2879 308.058 72.4019 308.514 72.0599 313.931L71.9459 311.08C71.8888 308.799 71.5468 307.943 70.2926 306.689Z" fill="#F5F8F6"/>
<path d="M69.4374 307.544C68.4112 306.575 67.271 306.232 64.4206 306.061L60.715 305.89L64.4206 305.776C67.7841 305.662 68.2402 305.776 69.6654 307.202C70.8056 308.399 71.2047 309.483 71.3757 311.764C71.4327 313.361 71.3757 314.558 71.0907 314.444C70.8626 314.33 70.6916 313.019 70.6916 311.479C70.6916 309.426 70.4066 308.514 69.4374 307.544Z" fill="#F5F8F6"/>
<path d="M80.7252 331.894C79.0149 326.42 77.5897 321.63 77.5897 321.344C77.6467 321.059 77.7607 321.23 77.8748 321.801C77.9888 322.314 78.5019 322.77 78.9579 322.77C79.528 322.77 79.8131 323.34 79.8131 324.481C79.8131 325.735 80.0981 326.192 80.7822 326.192C81.6374 326.192 81.7514 326.477 81.3523 327.902C81.0673 329.214 81.1243 329.613 81.8084 329.613C82.4355 329.613 82.6635 330.298 82.6635 332.179C82.6635 334.061 82.8916 334.746 83.5187 334.746C84.0888 334.746 84.3738 335.316 84.3738 336.456C84.3738 337.597 84.6589 338.167 85.229 338.167C85.685 338.167 86.0841 338.566 86.0841 339.023C86.0841 339.479 86.4832 339.878 86.9392 339.878C87.3953 339.878 87.7944 340.277 87.7944 340.733C87.7944 341.304 88.3645 341.589 89.5047 341.589C90.6449 341.589 91.2149 341.874 91.2149 342.444C91.2149 342.9 91.614 343.3 92.0701 343.3C92.5262 343.3 92.9252 343.699 92.9252 344.155C92.9252 344.611 93.3243 345.01 93.7804 345.01C94.2364 345.01 94.6355 345.41 94.6355 345.866C94.6355 346.322 95.0346 346.721 95.4906 346.721C95.9467 346.721 96.3458 347.12 96.3458 347.577C96.3458 348.033 96.7449 348.432 97.2009 348.432C97.885 348.432 98.0561 349.287 98.0561 352.709C98.0561 356.131 97.885 356.986 97.2009 356.986C96.5738 356.986 96.3458 357.67 96.3458 362.118H98.9112C100.793 362.118 101.477 362.346 101.477 362.974C101.477 363.43 101.876 363.829 102.332 363.829C102.959 363.829 103.187 364.513 103.187 366.395C103.187 368.277 102.959 368.962 102.332 368.962C101.876 368.962 101.477 369.361 101.477 369.817C101.477 370.273 101.078 370.672 100.621 370.672C100.165 370.672 99.7663 371.072 99.7663 371.528C99.7663 371.984 100.165 372.383 100.621 372.383C101.078 372.383 101.477 372.782 101.477 373.239C101.477 373.809 102.047 374.094 103.187 374.094C104.327 374.094 104.897 374.379 104.897 374.949C104.897 375.52 105.467 375.805 108.318 375.805V379.226C108.318 381.907 108.147 382.648 107.463 382.648C107.007 382.648 106.493 383.047 106.322 383.503C106.151 383.96 106.151 384.758 106.322 385.214C106.493 385.727 106.265 386.069 105.752 386.069C105.125 386.069 104.897 386.754 104.897 388.636C104.897 390.518 104.669 391.202 104.042 391.202C103.358 391.202 103.187 391.943 103.187 394.623C103.187 397.304 103.358 398.045 104.042 398.045C104.726 398.045 104.897 398.786 104.897 401.467C104.897 404.375 105.068 404.888 105.866 404.888C106.721 404.888 106.836 405.173 106.436 406.599C106.151 407.911 106.208 408.31 106.893 408.31C107.52 408.31 107.748 408.994 107.748 410.876C107.748 412.758 107.976 413.442 108.603 413.442C109.23 413.442 109.458 414.127 109.458 416.008C109.458 417.89 109.686 418.575 110.313 418.575C110.997 418.575 111.168 419.43 111.168 422.852C111.168 426.273 110.997 427.129 110.313 427.129C109.8 427.129 109.401 427.756 109.173 430.436L103.757 428.782C98.7972 427.186 98.1131 426.786 95.6617 424.106C94.1224 422.395 92.3551 419.601 91.5 417.434C90.1318 414.012 89.4477 413.214 81.9224 406.542C76.1645 401.41 73.485 398.615 71.5467 394.452L67.271 394.795C63.0523 395.08 62.9383 395.08 56.6103 392.171C52.0495 390.061 50.1682 388.921 50.1682 388.179C50.1682 387.666 49.7691 387.21 49.3131 387.21C48.686 387.21 48.4579 386.583 48.4579 384.929C48.4579 383.674 48.0589 382.249 47.6028 381.792C47.0897 381.279 46.7476 379.854 46.7476 378.086C46.7476 376.375 46.4626 375.177 46.0635 375.063C45.6645 375.006 45.3224 372.611 44.7523 360.864L47.0327 361.263C48.2869 361.491 49.5411 361.89 49.8832 362.175C50.1682 362.461 50.9093 362.689 51.4224 362.689C51.9925 362.689 53.7028 364.057 55.242 365.654C57.4654 368.106 58.6626 368.847 61.342 369.646C63.4514 370.273 66.6439 370.672 75.2523 370.672L77.5327 367.536C79.8131 364.399 79.8131 364.399 81.9224 364.913C83.8037 365.426 84.4308 365.255 86.4832 364.057C87.8514 363.316 89.2766 362.689 89.6187 362.689C90.0177 362.689 91.0439 363.373 91.8991 364.228C93.0392 365.369 93.9514 367.479 95.0346 371.414C96.5738 376.831 96.6878 377.059 99.1963 378.542C100.621 379.454 102.446 380.595 103.301 381.108C104.27 381.678 105.011 381.85 105.182 381.507C105.353 381.222 103.757 379.797 97.771 375.862L96.6878 371.699C96.1177 369.418 94.8065 365.597 93.7804 363.259C92.5262 360.408 91.728 357.499 91.386 354.477C90.9299 350.029 90.8729 349.915 87.4523 345.923C84.0318 341.988 83.8607 341.589 80.7252 331.894Z" fill="white"/>
<path d="M47.8879 346.037C48.572 345.41 49.0281 344.269 49.0851 343.186L49.1421 341.304L49.6552 342.9C50.0542 344.155 49.8262 345.067 46.8047 350.998L46.7477 349.002C46.7477 347.691 47.1467 346.664 47.8879 346.037Z" fill="#EFEFEF"/>
<path d="M56.2682 393.254C52.9047 391.657 50.1682 390.175 50.1682 389.89C50.1682 389.662 51.0234 389.833 52.0495 390.289C53.0187 390.745 55.9262 392.057 58.4346 393.197C62.7673 395.25 63.1663 395.307 71.2617 394.623L72.2878 396.79C72.9339 398.273 76.0125 401.485 81.5234 406.427C89.3336 413.442 89.8467 414.012 91.386 417.776C92.5262 420.627 93.7804 422.509 95.9467 424.619C98.5121 427.185 99.5953 427.755 104.213 429.181C107.121 430.093 109.458 431.006 109.458 431.234C109.458 431.519 108.888 431.519 108.204 431.348C107.463 431.177 104.783 430.321 102.161 429.523C97.828 428.154 97.1439 427.698 94.6925 424.847C93.1533 423.136 91.215 420 90.3028 417.947C88.8206 414.525 87.9084 413.499 80.7252 407.112C75.7654 402.664 72.4019 399.185 70.5206 395.478L66.4729 395.82C62.4822 396.163 62.3682 396.163 56.2682 393.254Z" fill="#EFEFEF"/>
<path id='mount peak' d="M51.0235 392.343C50.5674 392.343 50.1684 392 50.1114 391.544C50.0544 390.974 51.9357 391.601 56.2114 393.597C62.3114 396.391 62.4824 396.448 70.8628 395.878L71.7749 398.045C72.402 399.585 75.0815 402.379 80.6684 407.341C88.1936 414.013 88.7637 414.64 90.246 418.347C91.3861 421.198 92.6974 423.137 94.9777 425.418C97.7712 428.269 98.6263 428.725 109.173 432.033L109.344 435.283C109.401 437.85 109.287 438.534 108.603 438.534C108.147 438.534 107.748 438.933 107.748 439.389C107.748 439.846 108.147 440.245 108.603 440.245C109.287 440.245 109.458 440.986 109.458 443.666C109.458 446.347 109.629 447.088 110.313 447.088C110.883 447.088 111.168 447.658 111.168 448.799C111.168 449.939 111.453 450.51 112.024 450.51C112.48 450.51 112.879 450.909 112.879 451.365C112.879 451.821 113.278 452.22 113.734 452.22C114.19 452.22 114.589 452.62 114.589 453.076C114.589 453.532 114.988 453.931 115.444 453.931C116.014 453.931 116.299 454.501 116.299 455.642C116.299 456.782 116.584 457.353 117.154 457.353C117.61 457.353 118.01 457.752 118.01 458.208C118.01 458.664 118.409 459.064 118.865 459.064C119.321 459.064 119.834 459.577 120.005 460.204C120.195 460.964 120.765 461.345 121.715 461.345C122.627 461.345 123.14 461.687 123.14 462.2C123.14 462.77 123.71 463.055 124.851 463.055C125.991 463.055 126.561 462.77 126.561 462.2C126.561 461.744 126.96 461.345 127.416 461.345C127.872 461.345 128.271 460.945 128.271 460.489C128.271 460.033 128.67 459.634 129.126 459.634C129.582 459.634 129.981 459.235 129.981 458.778C129.981 458.322 130.381 457.923 130.837 457.923C131.407 457.923 131.692 457.353 131.692 456.212C131.692 455.072 131.977 454.501 132.547 454.501C133.003 454.501 133.402 454.102 133.402 453.646C133.402 453.19 133.801 452.791 134.257 452.791C134.713 452.791 135.112 452.391 135.112 451.935C135.112 451.308 135.796 451.08 137.678 451.08C139.559 451.08 140.243 451.308 140.243 451.935C140.243 452.391 140.642 452.791 141.098 452.791C141.554 452.791 141.953 453.19 141.953 453.646C141.953 454.102 142.353 454.501 142.809 454.501C143.265 454.501 143.664 454.901 143.664 455.357C143.664 455.813 144.063 456.212 144.519 456.212C144.975 456.212 145.374 456.611 145.374 457.068C145.374 457.524 145.773 457.923 146.229 457.923C146.685 457.923 147.084 458.322 147.084 458.778C147.084 459.463 148.11 459.634 153.07 459.634C158.03 459.634 159.056 459.805 159.056 460.489C159.056 460.945 159.455 461.345 159.911 461.345C160.367 461.345 160.767 461.858 160.767 462.485C160.767 463.112 160.595 463.626 160.367 463.626C160.082 463.626 158.942 463.341 157.802 463.055L157.802 463.055C156.263 462.656 155.066 462.656 153.811 463.169C151.987 463.797 151.816 463.74 145.83 458.892C140.699 454.787 139.331 453.931 137.678 453.931C136.31 453.931 135.682 454.216 135.682 454.787C135.682 455.414 136.138 455.585 137.279 455.414C138.533 455.243 140.015 456.098 145.26 460.261C151.531 465.222 151.702 465.336 153.526 464.652C154.952 464.139 155.921 464.139 157.916 464.766C159.341 465.165 160.938 466.021 161.451 466.705C162.021 467.389 162.42 468.359 162.477 468.872C162.477 469.442 162.762 469.899 163.047 469.899C163.332 469.899 163.617 471.039 163.617 472.465C163.617 474.347 163.389 475.031 162.762 475.031C162.306 475.031 161.907 475.43 161.907 475.886C161.907 476.514 161.223 476.742 159.341 476.742C157.46 476.742 156.776 476.97 156.776 477.597C156.776 478.053 156.377 478.453 155.921 478.453C155.465 478.453 155.066 478.852 155.066 479.308C155.066 479.764 154.667 480.163 154.21 480.163C153.754 480.163 153.355 480.563 153.355 481.019C153.355 481.475 152.956 481.874 152.5 481.874C151.759 481.874 151.645 483.471 151.645 504.114H149.935C148.795 504.114 148.224 504.4 148.224 504.97C148.224 505.54 147.654 505.825 146.514 505.825C145.374 505.825 144.804 506.11 144.804 506.681C144.804 507.251 144.405 507.422 143.55 507.251C142.809 507.08 138.989 506.966 134.998 506.966C128.898 506.966 127.701 506.852 127.701 506.11C127.701 505.54 127.131 505.255 125.991 505.255C124.851 505.255 124.281 504.97 124.281 504.4C124.281 503.943 123.881 503.544 123.425 503.544C122.969 503.544 122.57 503.145 122.57 502.689C122.57 502.233 122.171 501.833 121.715 501.833C121.259 501.833 120.86 501.434 120.86 500.978C120.86 500.522 120.575 500.123 120.29 500.123C120.005 500.123 119.834 499.837 120.005 499.552C120.176 499.267 120.005 498.982 119.72 498.982C119.435 498.982 119.15 498.469 119.15 497.842C119.15 497.214 118.979 496.701 118.751 496.701C118.466 496.701 117.781 495.732 117.211 494.591C116.584 493.393 116.128 492.253 116.185 491.968C116.242 491.74 116.014 491.569 115.615 491.569C115.273 491.569 115.159 491.398 115.33 491.112C115.558 490.884 114.988 490.143 114.133 489.402C113.278 488.66 111.453 487.178 110.028 486.094C108.603 485.011 106.038 483.528 104.327 482.787C102.617 482.102 101.249 481.19 101.363 480.848C101.42 480.448 101.249 480.163 100.907 480.163C100.622 480.163 100.451 479.992 100.565 479.707C100.736 479.479 99.5955 478.453 97.9992 477.426C96.46 476.457 94.9777 475.601 94.6357 475.601C94.3506 475.601 94.0656 474.974 94.0656 474.176C94.0656 473.263 93.7235 472.75 93.2104 472.75C92.7544 472.75 92.3553 472.351 92.3553 471.894C92.3553 471.438 91.9562 471.039 91.5002 471.039C91.0441 471.039 90.645 470.754 90.645 470.469C90.645 470.184 90.246 469.499 89.7899 469.043C89.3338 468.587 88.9347 467.675 88.9347 467.047C88.9347 466.42 88.7067 465.907 88.3646 465.907C88.0796 465.907 86.4263 463.683 84.8301 461.002C82.6067 457.41 80.9534 455.471 78.6731 453.76C76.9628 452.505 75.0245 450.852 74.3974 450.053C73.7702 449.312 72.345 447.772 71.2618 446.632C70.1787 445.434 68.1833 443.552 66.8151 442.355C65.5039 441.214 64.1927 440.245 63.8506 440.245C63.5656 440.245 63.2805 439.846 63.2805 439.389C63.2805 438.933 62.8815 438.534 62.4254 438.534C61.9693 438.534 61.5702 438.192 61.5702 437.793C61.6273 437.451 61.2282 436.766 60.7151 436.367C60.259 436.025 59.974 435.398 60.145 435.112C60.316 434.827 59.6889 433.858 58.7198 432.945C57.8076 432.09 57.0665 431.064 57.0095 430.664C57.0095 430.322 56.6104 429.98 56.1544 429.98C55.4702 429.98 55.2992 428.897 55.2992 423.707C55.2992 418.917 55.4702 417.263 56.1544 416.579C56.7815 415.952 57.0095 414.412 57.0095 410.876C57.0095 406.941 56.8385 406.029 56.1544 406.029C55.5273 406.029 55.2992 405.345 55.2992 403.463C55.2992 401.809 55.0712 400.897 54.6151 400.897C54.216 400.897 53.817 400.212 53.703 399.357C53.6459 398.444 53.1899 397.589 52.7338 397.304C52.1637 397.076 51.8787 396.049 51.8787 394.624C51.8787 392.97 51.6506 392.343 51.0235 392.343Z" fill="white"/>
<path d="M137.107 455.014C135.625 455.014 135.568 454.9 136.537 454.501C137.164 454.215 138.077 453.987 138.533 453.987C138.989 453.987 141.839 455.926 144.804 458.321C147.768 460.716 150.562 462.94 150.961 463.283C151.531 463.739 152.215 463.739 153.526 463.226C155.008 462.655 155.863 462.655 157.859 463.226C159.227 463.568 160.481 464.195 160.538 464.48C160.652 464.822 159.626 464.765 157.916 464.366C155.521 463.739 154.78 463.739 151.645 465.336L145.26 460.203C140.414 456.325 138.419 455.014 137.107 455.014Z" fill="#EFEFEF"/>
<path d="M246.565 743.055C247.021 743.055 247.42 742.656 247.42 742.2C247.42 741.515 248.219 741.344 251.24 741.344C253.406 741.344 257.625 741.515 260.704 741.8C264.523 742.086 266.234 742.428 266.234 742.884C266.234 743.397 267.317 743.625 269.654 743.625C272.334 743.625 273.075 743.796 273.075 744.481C273.075 745.051 273.645 745.336 274.785 745.336C275.925 745.336 276.495 745.621 276.495 746.191C276.495 746.648 276.894 747.047 277.35 747.047C277.977 747.047 278.206 747.731 278.206 749.613C278.206 751.495 277.977 752.179 277.35 752.179C276.894 752.179 276.495 752.578 276.495 753.035C276.495 753.491 276.096 753.89 275.64 753.89C275.184 753.89 274.785 754.289 274.785 754.745C274.785 755.202 274.386 755.601 273.93 755.601C273.474 755.601 273.075 756 273.075 756.456C273.075 756.912 272.676 757.312 272.22 757.312C271.535 757.312 271.364 758.053 271.364 764.155L269.654 763.699C268.229 763.356 267.944 763.471 267.944 764.269C267.944 764.839 267.545 765.295 267.089 765.295C266.519 765.295 266.234 765.866 266.234 767.006C266.234 768.147 266.519 768.717 267.089 768.717C267.545 768.717 267.944 769.116 267.944 769.572C267.944 770.029 268.343 770.428 268.799 770.428C269.255 770.428 269.654 770.827 269.654 771.283C269.654 771.739 270.053 772.139 270.509 772.139C270.965 772.139 271.364 772.538 271.364 772.994C271.364 773.45 271.763 773.849 272.22 773.849C272.676 773.849 273.075 774.249 273.075 774.705C273.075 775.161 273.474 775.56 273.93 775.56C274.386 775.56 274.785 775.959 274.785 776.416C274.785 776.872 275.184 777.271 275.64 777.271C276.153 777.271 276.381 777.613 276.21 778.126C276.039 778.64 276.267 778.982 276.78 778.982C277.35 778.982 277.635 779.552 277.635 780.693C277.635 781.833 277.92 782.403 278.491 782.403C279.175 782.403 279.346 783.145 279.346 785.825C279.346 788.505 279.517 789.246 280.201 789.246C280.828 789.246 281.056 789.931 281.056 791.813C281.056 793.695 281.284 794.379 281.911 794.379C282.367 794.379 282.766 794.778 282.766 795.234C282.766 795.69 283.165 796.09 283.621 796.09C284.077 796.09 284.477 796.489 284.477 796.945C284.477 797.401 284.876 797.8 285.332 797.8C285.788 797.8 286.187 798.2 286.187 798.656C286.187 799.112 286.586 799.511 287.042 799.511C287.498 799.511 287.897 799.91 287.897 800.367C287.897 800.823 288.296 801.336 288.752 801.507C289.208 801.678 289.607 802.42 289.607 803.218C289.607 804.016 290.006 804.758 290.463 804.929C290.919 805.1 291.318 805.613 291.318 806.069C291.318 806.525 291.717 806.925 292.173 806.925C292.743 806.925 293.028 807.495 293.028 808.635C293.028 809.776 293.313 810.346 293.883 810.346C294.339 810.346 294.738 810.745 294.738 811.202C294.738 811.658 295.137 812.057 295.593 812.057C296.163 812.057 296.449 812.627 296.449 813.768C296.449 814.908 296.734 815.479 297.304 815.479C297.76 815.479 298.159 815.878 298.159 816.334C298.159 816.79 298.558 817.189 299.014 817.189C299.584 817.189 299.869 817.76 299.869 818.9C299.869 820.041 300.154 820.611 300.724 820.611C301.294 820.611 301.579 821.181 301.579 822.322C301.579 823.462 301.864 824.033 302.435 824.033C303.062 824.033 303.29 824.717 303.29 826.599C303.29 828.481 303.518 829.165 304.145 829.165C304.829 829.165 305 830.134 305 834.583C305 838.517 304.829 840 304.316 840C303.917 840 302.549 838.289 301.294 836.179C299.584 833.328 297.703 831.275 288.581 823.747L286.928 817.304C285.503 811.544 285.104 810.631 283.165 808.75C281.968 807.609 280.03 806.354 278.89 806.069C276.951 805.499 276.552 805.043 273.873 799.511C271.136 793.923 270.395 792.953 262.756 785.027C258.195 780.293 252.266 774.819 244.285 768.888L242.404 759.536C241.377 754.403 240.522 749.727 240.579 749.214C240.579 748.644 240.978 748.187 241.434 748.187C241.891 748.187 242.29 747.788 242.29 747.332C242.29 746.876 242.689 746.477 243.145 746.477C243.601 746.477 244 746.077 244 745.621C244 745.165 244.399 744.766 244.855 744.766C245.311 744.766 245.71 744.367 245.71 743.91C245.71 743.454 246.109 743.055 246.565 743.055Z" fill="white"/>
<path d="M241.15 758.452C240.865 758.452 240.637 757.255 240.637 755.772C240.694 753.32 240.751 753.206 241.15 754.745C241.378 755.715 241.606 756.912 241.663 757.483C241.663 757.996 241.435 758.452 241.15 758.452Z" fill="#EFEFEF"/>
<path d="M242.86 767.006C242.575 767.006 242.347 765.808 242.347 764.326C242.404 761.874 242.461 761.759 242.86 763.299C243.088 764.269 243.316 765.466 243.373 766.036C243.373 766.55 243.145 767.006 242.86 767.006Z" fill="#EFEFEF"/>
<path d="M244.456 771.739C244.285 772.082 244.114 771.739 244.171 770.884L244.228 769.344L248.561 772.31C250.898 773.963 256.77 779.267 261.559 784.114C269.996 792.668 270.395 793.181 273.36 799.226C276.381 805.442 276.438 805.499 279.004 806.24C280.999 806.754 282.082 807.495 283.45 809.377C284.648 810.974 285.731 813.426 286.586 816.79C287.726 821.01 287.783 821.752 287.042 821.752C286.472 821.752 285.845 820.326 285.047 817.075C284.42 814.452 283.564 811.715 283.165 810.917C282.766 810.118 281.455 808.978 280.201 808.35C278.947 807.666 277.35 806.982 276.666 806.754C275.697 806.468 274.443 804.53 272.163 799.967C269.483 794.664 268.115 792.611 264.067 788.391C261.388 785.54 258.594 782.86 257.853 782.403C257.112 781.947 256.542 781.263 256.542 780.978C256.542 780.693 255.573 779.495 254.433 778.354C253.235 777.214 250.613 775.104 248.561 773.621C245.938 771.796 244.741 771.226 244.456 771.739Z" fill="#EFEFEF"/>
<path d="M246.965 775.56C246.394 774.762 245.71 773.564 245.539 772.88C245.197 771.739 245.539 771.853 248.618 774.02C250.556 775.332 253.179 777.385 254.49 778.526C256.485 780.293 256.656 780.579 255.516 780.521C254.832 780.464 254.262 780.236 254.262 780.008C254.262 779.723 253.977 779.666 253.692 779.837C253.35 780.008 253.122 779.951 253.122 779.723C253.122 779.438 252.152 778.754 251.012 778.183C249.815 777.556 248.675 777.043 248.447 777.043C248.276 776.986 247.592 776.359 246.965 775.56Z" fill="white"/>
<path d="M262.642 785.255C260.248 782.916 258.252 780.92 258.252 780.863C258.252 780.749 258.366 780.692 258.537 780.692C258.765 780.692 260.704 782.688 267.089 789.531L262.642 785.255Z" fill="#F5F8F6"/>
<path d="M290.007 826.599C288.809 825.629 287.897 824.546 288.011 824.09C288.125 823.576 289.265 824.318 291.318 826.086C293.028 827.568 295.479 829.735 296.734 830.819C297.988 831.902 299.983 834.354 301.123 836.293C302.435 838.403 302.948 839.772 302.549 839.943C302.15 840 301.294 839.373 300.553 838.517C299.869 837.605 299.014 836.407 298.729 835.894C298.349 835.21 298.349 834.963 298.729 835.153C299.071 835.324 299.128 835.096 298.786 834.468C298.501 833.898 297.817 833.043 297.247 832.587C296.278 831.845 296.278 831.902 297.304 833.157C297.874 833.955 297.019 833.157 295.308 831.446C293.598 829.678 291.204 827.511 290.007 826.599Z" fill="#EFEFEF"/>
</svg>
